<svg viewBox="0 0 38 38" fill="none" xmlns="http://www.w3.org/2000/svg" class="tw-h-8 tw-w-auto sm:tw-h-8">
    <path d="M15.833 22.4451C28.9302 16.2586 22.8225 0.632568 22.8225 0.632568C-3.65226 0.632568 0.195107 23.5208 0.195107 23.5208L14.5933 23.5244C16.9926 24.7727 19.678 29.0239 16.743 32.8112C15.2055 34.7947 12.2505 34.9274 10.3668 33.2774C9.6016 32.6092 8.0417 30.2699 9.81351 27.8531C11.185 25.9847 13.7044 26.7609 14.4814 27.5548C14.8028 27.8824 14.8652 28.3839 14.565 28.7291C14.4949 28.812 14.409 28.8802 14.3122 28.9296C14.2155 28.979 14.1098 29.0086 14.0014 29.0168C13.893 29.025 13.784 29.0116 13.6809 28.9773C13.5778 28.9431 13.4825 28.8886 13.4007 28.8172C13.0911 28.5436 12.0445 28.095 11.231 28.9746C10.8413 29.3962 10.235 30.7866 11.4464 32.015C12.5625 33.1494 14.4873 32.9545 15.4951 31.7202C17.3846 29.4067 15.8753 26.9782 15.1101 26.3064C13.0452 24.5014 10.0242 24.8326 8.12882 26.8161C6.45708 28.5612 6.72785 31.099 6.90562 31.8506C7.85216 35.834 11.9267 38.3143 15.7706 37.0236C22.5917 34.7313 25.1476 25.6112 22.6106 18.9127C21.8017 19.9527 20.7775 20.8065 19.6079 21.4161C18.4383 22.0257 17.1508 22.3767 15.833 22.4451ZM7.15756 17.6173C5.062 14.658 5.70597 10.5207 8.59738 8.37512C11.4876 6.23074 15.5292 6.88956 17.626 9.84895C19.7215 12.8083 19.0776 16.9444 16.1861 19.09C13.2959 21.2355 9.25312 20.5756 7.15756 17.6173ZM10.0066 16.4395C10.1306 16.6114 10.2874 16.7571 10.468 16.8684C10.6486 16.9797 10.8495 17.0543 11.0591 17.0879C11.2687 17.1215 11.4829 17.1134 11.6893 17.0642C11.8958 17.015 12.0905 16.9256 12.2623 16.8012C12.9863 16.275 13.1464 15.2627 12.6225 14.537C12.4984 14.3649 12.3414 14.2189 12.1606 14.1075C11.9797 13.9962 11.7786 13.9216 11.5687 13.8881C11.3588 13.8546 11.1444 13.8628 10.9377 13.9123C10.731 13.9618 10.5362 14.0516 10.3645 14.1765C10.0174 14.4301 9.78492 14.8104 9.71787 15.2344C9.65082 15.6583 9.75461 16.0915 10.0066 16.4395Z" fill="#23C55E"></path>
</svg>