<svg width="42" height="26" viewBox="0 0 42 26" fill="none" xmlns="http://www.w3.org/2000/svg">
    <path fill-rule="evenodd" clip-rule="evenodd" d="M24.8547 3.5862C24.8547 5.56681 23.2491 7.17241 21.2685 7.17241C19.2879 7.17241 17.6823 5.56681 17.6823 3.5862C17.6823 1.6056 19.2879 0 21.2685 0C23.2491 0 24.8547 1.6056 24.8547 3.5862ZM15.2616 8.9655C14.9645 8.9655 14.7236 9.20634 14.7236 9.50343V12.9103C14.7236 13.2074 14.9645 13.4483 15.2616 13.4483H26.7374C27.0345 13.4483 27.2753 13.2074 27.2753 12.9103V9.50343C27.2753 9.20634 27.0345 8.9655 26.7374 8.9655H15.2616ZM14.7236 15.7793C14.7236 15.4822 14.9645 15.2413 15.2616 15.2413H26.7374C27.0345 15.2413 27.2753 15.4822 27.2753 15.7793V19.1862C27.2753 19.4833 27.0345 19.7241 26.7374 19.7241H15.2616C14.9645 19.7241 14.7236 19.4833 14.7236 19.1862V15.7793ZM14.7236 22.0551C14.7236 21.758 14.9645 21.5172 15.2616 21.5172H26.7374C27.0345 21.5172 27.2753 21.758 27.2753 22.0551V25.462C27.2753 25.7591 27.0345 25.9999 26.7374 25.9999H15.2616C14.9645 25.9999 14.7236 25.7591 14.7236 25.462V22.0551Z" fill="#EC5E3E"></path><path fill-rule="evenodd" clip-rule="evenodd" d="M38.9303 9.86208C38.9303 11.8427 37.3247 13.4483 35.3441 13.4483C33.3635 13.4483 31.7579 11.8427 31.7579 9.86208C31.7579 7.88148 33.3635 6.27588 35.3441 6.27588C37.3247 6.27588 38.9303 7.88148 38.9303 9.86208ZM29.6063 15.2414C29.3092 15.2414 29.0684 15.4822 29.0684 15.7793V19.1862C29.0684 19.4833 29.3092 19.7241 29.6063 19.7241H41.0821C41.3792 19.7241 41.6201 19.4833 41.6201 19.1862V15.7793C41.6201 15.4822 41.3792 15.2414 41.0821 15.2414H29.6063ZM29.6063 21.5172C29.3092 21.5172 29.0684 21.7581 29.0684 22.0551V25.462C29.0684 25.7591 29.3092 26 29.6063 26H41.0821C41.3792 26 41.6201 25.7591 41.6201 25.462V22.0551C41.6201 21.7581 41.3792 21.5172 41.0821 21.5172H29.6063Z" fill="#7847A8"></path><path fill-rule="evenodd" clip-rule="evenodd" d="M10.51 16.2349C10.51 18.1186 8.90435 19.7242 6.92375 19.7242C4.94314 19.7242 3.33755 18.1186 3.33755 16.2349C3.33755 14.1574 4.94314 12.5518 6.92375 12.5518C8.90435 12.5518 10.51 14.1574 10.51 16.2349ZM0.378906 22.0552C0.378906 21.7581 0.619746 21.5173 0.916837 21.5173H12.3927C12.6898 21.5173 12.9306 21.7581 12.9306 22.0552V25.4621C12.9306 25.7592 12.6898 26 12.3927 26H0.916837C0.619746 26 0.378906 25.7592 0.378906 25.4621V22.0552Z" fill="#F9CA3F"></path><path fill-rule="evenodd" clip-rule="evenodd" d="M10.51 16.2349C10.51 18.1186 8.90435 19.7242 6.92375 19.7242C4.94314 19.7242 3.33755 18.1186 3.33755 16.2349C3.33755 14.1574 4.94314 12.5518 6.92375 12.5518C8.90435 12.5518 10.51 14.1574 10.51 16.2349ZM0.378906 22.0552C0.378906 21.7581 0.619746 21.5173 0.916837 21.5173H12.3927C12.6898 21.5173 12.9306 21.7581 12.9306 22.0552V25.4621C12.9306 25.7592 12.6898 26 12.3927 26H0.916837C0.619746 26 0.378906 25.7592 0.378906 25.4621V22.0552Z" fill="#F7B22C"></path>
</svg>